<svg width="258" height="559" viewBox="0 0 258 559" fill="none" xmlns="http://www.w3.org/2000/svg">
  <path d="M257.079 279.555C257.079 363.46 257.076 447.365 257.087 531.271C257.088 536.397 255.827 541.159 253.092 545.482C248.714 552.4 242.417 556.479 234.351 557.805C233.107 558.01 231.827 558.079 230.564 558.079C162.869 558.091 95.1743 558.091 27.4795 558.091C14.4491 558.091 3.29115 548.573 1.23778 535.7C0.995691 534.183 0.926964 532.624 0.92625 531.084C0.90996 491.569 0.913408 452.054 0.913408 412.539C0.913408 284.323 0.916262 156.108 0.902588 27.8924C0.902588 22.9804 1.99247 18.3742 4.50945 14.1656C8.72916 7.11022 14.8928 2.7766 23.0164 1.32917C24.3359 1.09398 25.687 0.923588 27.0244 0.918118C35.8626 0.881614 44.701 0.893293 53.5395 0.900758C55.7864 0.902304 57.08 2.06864 57.314 4.29764C57.4045 5.15946 57.4575 6.02854 57.466 6.89488C57.4842 8.73815 57.7641 10.533 58.4945 12.2262C60.7844 17.5346 64.7657 20.6489 70.541 21.3602C71.5592 21.4856 72.5942 21.5183 73.6215 21.5184C110.957 21.5261 148.292 21.5245 185.627 21.5257C188.32 21.5257 190.921 21.0818 193.284 19.7351C198.182 16.9431 200.777 12.7225 200.997 7.06658C201.037 6.0415 201.064 5.01357 201.167 3.99407C201.341 2.2816 202.67 1.03655 204.4 0.906109C204.676 0.885301 204.955 0.893293 205.232 0.893293C213.595 0.893293 221.958 0.893293 230.321 0.899688C242.983 0.913481 253.717 9.47952 256.465 21.8278C256.841 23.5161 256.901 25.2772 257.069 27.0083C257.13 27.6366 257.079 28.2757 257.079 28.9098C257.079 112.458 257.079 196.007 257.079 279.555Z" fill="white"/>
</svg>
