<svg width="170" height="55" viewBox="0 0 170 55" fill="#ED6756" xmlns="http://www.w3.org/2000/svg">
  <path d="M75.3348 21.195L98.2412 0L97.0294 13.9978L75.2951 35.1136L53.6006 13.9185V0.019827L75.3348 21.1356V21.195ZM72.6926 26.9845C72.6926 28.65 74.0435 29.9982 75.7123 29.9982C77.3811 29.9982 78.7519 28.65 78.7321 26.9845C78.7321 25.319 77.3811 23.9708 75.7123 23.9708C74.0435 23.9708 72.6926 25.319 72.6926 26.9845ZM169.98 32.2188H160.623L157.802 37.5325L155.02 32.2188H145.663L153.769 44.3529V53.4535H161.874V44.3529L169.98 32.2188ZM148.603 49.5674C148.504 49.9441 148.325 50.6579 148.087 51.7087C147.948 52.3234 147.849 53.0371 147.749 53.8699H134.915C134.876 51.6493 134.756 48.0011 134.558 42.9056C134.438 40.3082 134.22 36.6997 133.882 32.1197H143.716L142.902 50.1424C143.816 50.1424 145.186 50.0433 147.034 49.845C147.431 49.8053 147.948 49.7062 148.603 49.5674ZM122.598 32.199H130.604L132.114 53.4138H124.525L124.108 43.8176L121.585 53.4138H115.545L112.923 43.8176L112.506 53.4138H104.916L104.956 52.7794C107.082 50.0631 108.334 46.6727 108.334 42.9849C108.334 40.11 107.559 37.4135 106.228 35.0739L106.426 32.199H115.029L118.565 43.8176L122.598 32.199ZM104.181 42.9055C104.181 36.3428 98.8571 31.0292 92.2812 31.0292C85.7053 31.0292 80.381 36.3428 80.381 42.9055C80.381 47.6838 83.2219 51.8078 87.3145 53.6914C88.1886 51.0148 89.321 48.0606 90.215 46.177C89.2018 46.0184 88.288 45.6417 87.5529 45.146C86.6986 45.5029 85.9039 46.0184 85.1689 46.752C85.2682 45.8994 86.0629 45.1856 87.0562 44.7495C86.798 44.5115 86.5595 44.2736 86.3609 43.996C85.447 44.1943 84.5729 44.5115 83.7186 45.027C84.2749 44.2538 85.1291 43.7383 86.0629 43.4805C85.9635 43.2823 85.8841 43.0642 85.8046 42.8461C85.3278 42.8857 84.851 42.9849 84.3543 43.1038C84.7517 42.7668 85.2086 42.5288 85.7053 42.39C85.6953 42.3306 85.6904 42.276 85.6854 42.2215C85.6804 42.167 85.6755 42.1125 85.6655 42.053C85.6457 41.7556 85.6854 41.478 85.745 41.1806C84.8113 40.0901 83.9769 38.0876 84.3941 37.5919C84.8113 37.0962 86.8575 37.6117 88.0893 38.3057C89.023 37.7704 90.1753 37.4531 91.407 37.3937C92.6388 37.354 93.8109 37.5919 94.7844 38.0479C95.9764 37.2549 97.9631 36.6204 98.42 37.0764C98.8769 37.5324 98.2015 39.5944 97.3472 40.7444C97.4267 41.022 97.4863 41.3194 97.5061 41.6168V41.9737C98.122 42.053 98.6982 42.2711 99.1749 42.628C98.5789 42.5288 98.0028 42.4694 97.4267 42.4694C97.3869 42.6676 97.3075 42.8857 97.228 43.0642C98.2809 43.2228 99.2743 43.6788 99.9299 44.4917C98.9564 44.0159 97.9432 43.7383 96.93 43.6193C96.7711 43.8771 96.5724 44.1348 96.334 44.3727C97.4863 44.7098 98.42 45.3839 98.6187 46.296C97.7445 45.5624 96.8505 45.0865 95.8771 44.7891C95.2215 45.3046 94.4069 45.721 93.493 45.9787C94.6056 47.9019 95.9565 51.0148 97.0293 53.7509C101.241 51.9466 104.181 47.7631 104.181 42.9055ZM45.8326 43.4607C45.8326 36.9376 51.1172 31.6637 57.6534 31.6637C64.1895 31.6637 69.4741 36.9376 69.4741 43.3814C69.4741 49.0519 65.461 53.7906 60.097 54.9207V54.9009L59.9778 54.4052L59.6202 52.8389L59.1831 50.9156L58.6467 48.6157C58.607 47.9416 59.0242 47.327 59.6798 47.1485C61.0903 46.752 62.0638 46.5537 63.8319 46.7123C64.2491 46.633 64.7061 46.177 65.0041 45.721C65.014 45.7012 65.0289 45.6813 65.0438 45.6615C65.0587 45.6417 65.0736 45.6218 65.0835 45.602C65.1432 45.5029 65.2028 45.4038 65.2425 45.3046L65.3418 45.1063C65.4412 44.8883 65.4014 44.6702 65.2822 44.4917L65.1842 44.3939C65.2231 44.4327 65.2429 44.4523 65.2822 44.4719L65.4014 44.5908C65.5802 44.7891 65.6795 45.027 65.7789 45.2649L65.7789 45.265C65.8782 45.5029 65.9974 45.7408 66.1961 45.8994C66.2557 45.9589 66.3153 45.9986 66.3948 45.9986C66.5338 45.9986 66.6133 45.8399 66.6729 45.7012C66.6828 45.6516 66.6977 45.607 66.7126 45.5624C66.7275 45.5178 66.7424 45.4731 66.7524 45.4236C66.7722 45.3443 66.7921 45.265 66.7524 45.1857C66.7325 45.1262 66.6928 45.0865 66.653 45.0469C66.5636 44.9577 66.4742 44.8734 66.3848 44.7891C66.2954 44.7049 66.206 44.6206 66.1166 44.5314C66.0759 44.4958 66.0352 44.459 65.9942 44.4219C65.875 44.314 65.753 44.2035 65.62 44.115C65.5206 44.0555 65.4213 44.0159 65.322 43.9762C65.0438 43.8771 64.7458 43.8374 64.4677 43.8374C64.3286 43.8176 64.1895 43.8374 64.0505 43.8573L64.0107 43.7185L63.971 43.8573C63.7326 43.8771 63.4942 43.9167 63.2757 43.9564C62.7194 44.0555 62.1433 44.1348 61.587 44.1745C61.5333 44.1794 61.4796 44.183 61.4262 44.1867H61.4261C61.2622 44.1979 61.1011 44.2089 60.9513 44.2538C60.7725 44.3133 60.5937 44.4124 60.4546 44.5512C60.3354 44.5512 60.2361 44.5314 60.1367 44.4917C59.8983 44.4124 59.7394 44.2736 59.6599 44.115C59.6003 44.0159 59.5805 43.9167 59.5805 43.8176V43.7978C59.6202 43.1435 60.0175 42.5685 60.6135 42.2711L64.0902 40.8237C64.3087 40.6849 64.5074 40.5065 64.6664 40.2884C64.7856 40.11 64.9047 39.9117 65.0041 39.6936C65.2028 39.2574 65.322 38.7221 65.3617 38.2264C65.3816 38.0083 65.3816 37.7902 65.3816 37.5919C65.3816 37.4135 65.3617 37.235 65.3418 37.0764L65.322 36.9178L65.2226 36.3032C65.163 35.8472 64.6465 35.5894 64.2293 35.7877C64.1556 35.8139 64.0832 35.8402 64.0119 35.8661L64.0105 35.8666C63.8133 35.9383 63.624 36.0071 63.4346 36.0653C63.0526 36.2057 62.7062 36.336 62.38 36.4587L62.3798 36.4588C62.0614 36.5786 61.7622 36.6911 61.4678 36.7989C60.8519 37.0368 60.2559 37.2549 59.6401 37.473C58.9082 37.7199 58.3956 37.481 57.8748 37.2384C57.3918 37.0133 56.9017 36.785 56.223 36.9376C55.5475 37.0963 54.7528 37.4333 53.9582 37.8893C53.6403 38.0876 53.3224 38.2859 53.0046 38.504C52.1701 39.079 51.3953 39.7531 50.7596 40.4272C50.6672 40.5194 50.5868 40.6354 50.509 40.7476C50.4864 40.7801 50.4641 40.8123 50.4417 40.8436C50.0643 41.3987 49.8457 42.053 49.8259 42.7271L48.8127 44.8883C48.4551 46.0779 49.4484 46.8313 50.5411 47.4459C50.5013 49.3097 50.4417 51.0743 50.3225 52.7001C47.5809 50.5389 45.8326 47.208 45.8326 43.4607ZM43.5082 36.5808C43.2102 35.9661 42.8526 35.411 42.3957 34.8756C41.1242 33.4283 39.3958 32.6947 37.2104 32.6947H24.5553V53.9095H32.6609V47.8425L36.7138 53.9095H45.8326L40.5878 47.0494C41.1838 46.7322 41.7003 46.3356 42.1771 45.8796C42.0579 45.0865 41.9983 44.2736 41.9983 43.4409C41.9586 41.0022 42.5149 38.6626 43.5082 36.5808ZM35.6211 42.2513C35.2436 42.628 34.747 42.8263 34.1708 42.8263H32.6609V38.2661H34.1708C34.7668 38.2661 35.2436 38.4643 35.6211 38.841C35.9986 39.2376 36.1972 39.7927 36.1972 40.5263C36.1972 41.2996 36.0184 41.8547 35.6211 42.2513ZM22.7872 43.3219C22.7872 42.6676 22.7077 41.9935 22.5885 41.2996H11.1453V45.8399H14.6219C14.0855 47.1882 13.0922 47.8623 11.6419 47.8623C10.6089 47.8623 9.75459 47.4459 9.09898 46.5735C8.44338 45.721 8.10565 44.6305 8.10565 43.3219C8.10565 41.9935 8.44338 40.903 9.11885 40.0505C9.79432 39.1979 10.6287 38.7617 11.6419 38.7617C12.7147 38.7617 13.5491 39.2574 14.165 40.2487L21.7343 38.266C20.7211 36.3825 19.3502 34.9153 17.602 33.8248C15.8736 32.7343 13.8869 32.199 11.6419 32.199C8.44338 32.199 5.70177 33.2895 3.41709 35.4506C1.13241 37.6316 0 40.2487 0 43.3219C0 46.3951 1.13241 49.0123 3.41709 51.1734C5.70177 53.3345 8.44338 54.425 11.6419 54.425C14.8405 54.425 17.4828 53.3544 19.6085 51.1932C21.7343 49.0519 22.7872 46.4149 22.7872 43.3219Z" />
</svg>
